<?xml version="1.0" encoding="utf-8"?>
<!-- Generator: Adobe Illustrator 19.2.1, SVG Export Plug-In . SVG Version: 6.00 Build 0)  -->
<svg version="1.1" id="img-logo" xmlns="http://www.w3.org/2000/svg" xmlns:xlink="http://www.w3.org/1999/xlink" x="0px" y="0px"
	 viewBox="0 0 283.5 72.2" style="enable-background:new 0 0 283.5 72.2;" xml:space="preserve">
<style type="text/css">
	.st0{fill:#FFFFFF;}
	.st1{fill:#009844;}
</style>
<g>
	<path class="st0" d="M162.8,0h-23.3c-3.7,0-6.3,0.6-7.6,1.9c-1.4,1.3-2,3.7-2,7.4v20.6c0,3.6,0.7,6.1,2,7.4
		c1.4,1.3,3.9,1.9,7.6,1.9h23.3c3.7,0,6.3-0.6,7.6-1.9c1.4-1.3,2.1-3.7,2.1-7.4v-4.6l-9.1-1.9v8.4h-24.5V7h24.5v7.4l9.1-1.4V9.3
		c0-3.6-0.7-6.1-2.1-7.4C169.1,0.6,166.5,0,162.8,0z"/>
	<g>
		<g>
			<path class="st0" d="M80.2,24.3h5.2c5.9,0,8.8-2.5,8.8-7.6V7.6c0-5-2.9-7.6-8.8-7.6H51.9v39.1h8.9V24.3h8.6l15.7,14.8h13
				L80.2,24.3z M60.8,17.6V6.7h20.4c1.4,0,2.4,0.1,3,0.4c0.8,0.5,1.1,1.4,1.1,2.7v4.7c0,1.3-0.4,2.2-1.1,2.7c-0.6,0.3-1.5,0.4-3,0.4
				H60.8z"/>
		</g>
	</g>
	<g>
		<g>
			<path class="st0" d="M263,24.3h5.2c5.9,0,8.8-2.5,8.8-7.6V7.6c0-5-2.9-7.6-8.8-7.6h-33.5v39.1h8.9V24.3h8.7l15.7,14.8h13
				L263,24.3z M243.7,17.6V6.7h20.5c1.4,0,2.4,0.1,3,0.4c0.8,0.5,1.1,1.4,1.1,2.7v4.7c0,1.3-0.4,2.2-1.1,2.7c-0.6,0.3-1.5,0.4-3,0.4
				H243.7z"/>
		</g>
	</g>
	<g>
		<g>
			<path class="st0" d="M34.4,0H1v39.1h8.9V23.9h24.5c5.8,0,8.8-2.5,8.8-7.6V7.6C43.2,2.5,40.3,0,34.4,0z M34.4,14
				c0,1.3-0.4,2.2-1.1,2.7c-0.6,0.3-1.5,0.5-3,0.5H9.9V6.7h20.4c1.4,0,2.4,0.1,3,0.5c0.7,0.4,1.1,1.3,1.1,2.7V14z"/>
		</g>
	</g>
	<polygon class="st0" points="222,7.1 222,0 193.6,0 193.6,0 184.6,0 184.6,39.1 191.6,39.1 191.6,39.1 222,39.1 222,32.1 
		193.6,32.1 193.6,22.3 222,22.3 222,15.1 193.6,15.1 193.6,7.1 	"/>
	<rect x="107.7" y="29.6" class="st0" width="9.1" height="39.1"/>
	<rect x="107.7" class="st1" width="9.1" height="39.1"/>
	<path class="st0" d="M70,68.7V45.9h19.6c1.8,0,3.1,0.4,3.9,1.1c0.8,0.7,1.2,1.8,1.2,3.4v2.8c0,1.1-0.3,2-1,2.6
		c-0.7,0.7-1.6,1.1-2.9,1.2c1.3,0.2,2.3,0.6,3,1.4c0.7,0.8,1.1,1.8,1.1,3v2.9c0,1.5-0.6,2.6-1.7,3.4c-1.1,0.7-2.8,1.1-5.1,1.1H70z
		 M87.4,49.6H75.2V55h12.1c0.9,0,1.6-0.1,1.9-0.4c0.4-0.2,0.5-0.7,0.5-1.3v-2.2c0-0.6-0.2-1-0.5-1.3C88.9,49.7,88.3,49.6,87.4,49.6z
		 M87.4,58.8H75.2v5.8h12.1c1,0,1.7-0.2,2-0.5c0.4-0.3,0.5-0.8,0.5-1.6v-1.7c0-0.8-0.2-1.3-0.5-1.6C89,58.9,88.4,58.8,87.4,58.8z"/>
	<path class="st0" d="M152,49.8h-14.9v4.9h14.2c2.2,0,3.7,0.4,4.5,1.1c0.8,0.8,1.2,2.2,1.2,4.3v3.1c0,2.1-0.4,3.5-1.2,4.3
		c-0.8,0.8-2.3,1.1-4.5,1.1h-14.1c-2.2,0-3.7-0.4-4.5-1.1c-0.8-0.8-1.2-2.2-1.2-4.3v-0.6l4.7-1v2.7h16.1v-5.2h-14.2
		c-2.2,0-3.7-0.4-4.5-1.1c-0.8-0.8-1.2-2.2-1.2-4.3v-2.5c0-2.1,0.4-3.5,1.2-4.3c0.8-0.8,2.3-1.1,4.5-1.1h13c2.1,0,3.6,0.4,4.4,1.1
		c0.8,0.7,1.2,2,1.2,3.9v0.5l-4.7,1.1V49.8z"/>
	<path class="st0" d="M161.6,68.7V45.9h5.3v8.9h16.6v-8.9h5.4v22.8h-5.4v-9.8h-16.6v9.8H161.6z"/>
	<path class="st0" d="M194.3,68.7V45.9h5.4v9.5l12.7-9.5h7.7l-15.1,10.8l17,12.1h-8.5l-13.7-10v10H194.3z"/>
	<path class="st0" d="M253.3,68.7V45.9h5.4v9.5l12.7-9.5h7.7l-15.1,10.8l17,12.1h-8.5l-13.7-10v10H253.3z"/>
	<polygon class="st0" points="247.2,50 247.2,45.9 230.7,45.9 230.7,45.9 225.4,45.9 225.4,68.6 229.5,68.6 229.5,68.7 247.2,68.7 
		247.2,64.5 230.7,64.5 230.7,58.8 247.2,58.8 247.2,54.7 230.7,54.7 230.7,50 	"/>
</g>
</svg>
